<?xml version="1.0" encoding="UTF-8"?>
<svg version="1.1" xmlns="http://www.w3.org/2000/svg" width="138" height="140">
<path d="M0 0 C3.125 2.25 3.125 2.25 5 4 C5 4.66 5 5.32 5 6 C6.485 6.495 6.485 6.495 8 7 C14.51251627 14.18328105 18.86236741 21.83319106 22 31 C22.31839844 31.84691406 22.63679688 32.69382813 22.96484375 33.56640625 C28.07659698 48.9958918 25.48320087 66.72508057 18.47265625 81.140625 C17.07590007 83.51475509 15.59978408 85.75941843 14 88 C13.26940617 89.14492389 12.5400488 90.29063872 11.8125 91.4375 C10.31807644 93.55030572 8.99899267 95.36446054 7 97 C6.34 97 5.68 97 5 97 C5 97.66 5 98.32 5 99 C-9.70141247 111.21047548 -26.83755002 117.41127365 -46 116 C-58.90491384 114.18280641 -69.50074882 109.60935828 -80 102 C-81.11568359 101.23042969 -81.11568359 101.23042969 -82.25390625 100.4453125 C-82.83011719 99.96835938 -83.40632813 99.49140625 -84 99 C-84 98.34 -84 97.68 -84 97 C-84.66 97 -85.32 97 -86 97 C-86 96.34 -86 95.68 -86 95 C-86.66 95 -87.32 95 -88 95 C-99.26550787 81.47696403 -105.40482202 64.73587797 -104 47 C-102.10334041 28.46015255 -94.64135203 12.85296071 -80.1875 0.875 C-55.38624172 -18.13807688 -25.68665683 -16.64710164 0 0 Z " fill="#C1792A" transform="translate(110,19)"/>
<path d="M0 0 C12.25112584 9.78980186 21.43569651 23.2745118 23.75 39.0625 C24.2440063 46.84309916 23.9976223 54.26842715 23 62 C19.06830895 62 17.83572772 60.60580385 15 58 C15 57.34 15 56.68 15 56 C14.40703125 55.73574219 13.8140625 55.47148438 13.203125 55.19921875 C10.91970946 53.95629575 9.52573277 52.69598354 7.75 50.8125 C4.64350114 47.60600654 1.39176247 44.66519215 -2.0078125 41.7734375 C-4.4379651 39.61012519 -6.715752 37.31586389 -9 35 C-8.25492187 34.2471875 -7.50984375 33.494375 -6.7421875 32.71875 C-0.62123043 26.15396078 -0.62123043 26.15396078 1.25390625 17.6796875 C0.74816724 12.62911634 -0.39501175 7.81496474 -2 3 C-1.505 11.415 -1.505 11.415 -1 20 C-1.66 20.33 -2.32 20.66 -3 21 C-4.03590199 15.94997778 -4.10251672 11.12583611 -4 6 C-7.75074783 9.55789023 -10.80946855 13.30512701 -13.75 17.5625 C-14.62373472 18.80818011 -15.49875998 20.0529559 -16.375 21.296875 C-16.81199219 21.91755859 -17.24898438 22.53824219 -17.69921875 23.17773438 C-19.66396617 25.93015081 -21.70549397 28.61872517 -23.75 31.3125 C-27.36050299 36.09016381 -30.75817897 40.96564264 -34 46 C-34.99 45.67 -35.98 45.34 -37 45 C-37.02578125 44.3709375 -37.0515625 43.741875 -37.078125 43.09375 C-37.57073737 35.65978156 -38.99545764 29.92750281 -44.4375 24.625 C-50.77408491 20.60667786 -56.63280991 20.21833527 -64 21 C-67.93358023 22.23186854 -70.46621375 24.46621375 -73.375 27.375 C-76.27300848 33.83978815 -76 40.99445972 -76 48 C-76.5259375 49.4540625 -76.5259375 49.4540625 -77.0625 50.9375 C-78.02108597 54.06888082 -78.08734209 55.03452158 -77 58 C-76.66666667 59.33333333 -76.33333333 60.66666667 -76 62 C-76.99 62 -77.98 62 -79 62 C-77.68 62.33 -76.36 62.66 -75 63 C-75 63.99 -75 64.98 -75 66 C-75.66 66 -76.32 66 -77 66 C-77 66.66 -77 67.32 -77 68 C-74.36 68 -71.72 68 -69 68 C-68.505 68.99 -68.505 68.99 -68 70 C-64.37114676 70.15149298 -64.37114676 70.15149298 -61 69 C-61 69.99 -61 70.98 -61 72 C-59.68 72.33 -58.36 72.66 -57 73 C-56.9175 72.401875 -56.835 71.80375 -56.75 71.1875 C-55.79060637 68.38926857 -54.35950479 67.69589407 -52 66 C-51.505 64.515 -51.505 64.515 -51 63 C-48.9375 62.3125 -48.9375 62.3125 -47 62 C-47.62286841 64.68800977 -48.24823207 67.3753992 -48.875 70.0625 C-49.04902344 70.81466797 -49.22304688 71.56683594 -49.40234375 72.34179688 C-50.47664764 76.93743017 -51.66534057 81.47297949 -53 86 C-46.1775771 78.43466354 -41.89238593 73.03305649 -41.8671875 62.38671875 C-41.91101563 61.59910156 -41.95484375 60.81148438 -42 60 C-41.34 60 -40.68 60 -40 60 C-39.9175 60.61875 -39.835 61.2375 -39.75 61.875 C-39.19884128 64.18581338 -39.19884128 64.18581338 -36.953125 65.1328125 C-36.30859375 65.41898437 -35.6640625 65.70515625 -35 66 C-35.4125 66.54825439 -35.825 67.09650879 -36.25 67.66137695 C-47.23368886 82.25043355 -47.23368886 82.25043355 -58 97 C-55.31769579 94.46671269 -53.05162224 92.07743336 -51 89 C-48.94837776 85.92256664 -46.68230421 83.53328731 -44 81 C-40.7078977 82.4248175 -38.67426739 84.14568692 -36.25 86.7734375 C-35.5590625 87.5159375 -34.868125 88.2584375 -34.15625 89.0234375 C-33.4446875 89.79945312 -32.733125 90.57546875 -32 91.375 C-30.58380365 92.90408156 -29.16715121 94.43274086 -27.75 95.9609375 C-27.12609375 96.63946777 -26.5021875 97.31799805 -25.859375 98.01708984 C-24.53666784 99.42767644 -23.16607908 100.79401081 -21.765625 102.12744141 C-20 104 -20 104 -20 106 C-34.87534353 110.28039417 -51.56132402 107.47648247 -64.93359375 100.4609375 C-75.46415901 94.29741664 -83.47260407 85.84621089 -89 75 C-89.58394531 73.8553125 -89.58394531 73.8553125 -90.1796875 72.6875 C-97.42031741 57.46632179 -96.50051995 40.62537084 -91 25 C-83.94337547 9.65407476 -71.77933276 -1.88102579 -56 -8 C-36.52407313 -13.82873292 -16.77103164 -11.81002518 0 0 Z " fill="#05615F" transform="translate(106,22)"/>
<path d="M0 0 C5.19778087 3.05815382 8.9591842 7.4961754 10.5625 13.375 C10.84192263 16.00486 11.06252999 18.62550683 11.21875 21.265625 C11.3321875 21.96171875 11.445625 22.6578125 11.5625 23.375 C12.2225 23.705 12.8825 24.035 13.5625 24.375 C13.7996875 23.67761719 14.036875 22.98023437 14.28125 22.26171875 C15.80370384 18.83155597 17.78317808 16.16615932 20.0625 13.1875 C20.8565625 12.14207031 21.650625 11.09664062 22.46875 10.01953125 C24.5625 7.375 24.5625 7.375 26.5625 5.375 C27.5525 5.705 28.5425 6.035 29.5625 6.375 C29.2325 10.665 28.9025 14.955 28.5625 19.375 C29.2225 19.705 29.8825 20.035 30.5625 20.375 C29.0775 20.87 29.0775 20.87 27.5625 21.375 C27.3388932 24.3004644 27.3388932 24.3004644 28.5625 26.375 C29.5525 25.715 30.5425 25.055 31.5625 24.375 C33.5425 26.025 35.5225 27.675 37.5625 29.375 C37.2325 30.365 36.9025 31.355 36.5625 32.375 C37.28824219 32.44460937 38.01398438 32.51421875 38.76171875 32.5859375 C42.37934806 33.60513014 43.82023808 35.26776674 46.375 38 C51.75889012 43.60855319 57.30424632 48.75712559 63.5625 53.375 C63.22007342 58.8538252 59.91129567 62.31560622 56.5625 66.375 C55.77875 67.385625 54.995 68.39625 54.1875 69.4375 C51.5625 71.375 51.5625 71.375 47.875 71.4375 C37.29976049 69.23971184 30.82578381 64.50885604 23.4375 56.75 C22.57640625 55.87859375 21.7153125 55.0071875 20.828125 54.109375 C14.5625 47.68462302 14.5625 47.68462302 14.5625 45.375 C13.5725 45.705 12.5825 46.035 11.5625 46.375 C11.2325 45.385 10.9025 44.395 10.5625 43.375 C9.5725 42.88 9.5725 42.88 8.5625 42.375 C8.0675 43.365 8.0675 43.365 7.5625 44.375 C7.5625 42.395 7.5625 40.415 7.5625 38.375 C6.9025 38.375 6.2425 38.375 5.5625 38.375 C5.69011719 39.15101562 5.81773438 39.92703125 5.94921875 40.7265625 C6.69126484 48.80233683 5.09724823 53.10623386 0.0625 59.1875 C-1.729691 61.29644649 -3.55895943 63.34093091 -5.4375 65.375 C-6.71593003 61.53970991 -5.88635705 59.98939953 -4.625 56.1875 C-3.03651892 51.27365195 -1.61991863 46.40027917 -0.4375 41.375 C-1.4275 41.375 -2.4175 41.375 -3.4375 41.375 C-3.4375 43.025 -3.4375 44.675 -3.4375 46.375 C-4.241875 46.643125 -5.04625 46.91125 -5.875 47.1875 C-7.1434375 47.7753125 -7.1434375 47.7753125 -8.4375 48.375 C-8.7675 49.365 -9.0975 50.355 -9.4375 51.375 C-11.4175 51.375 -13.3975 51.375 -15.4375 51.375 C-15.4375 50.715 -15.4375 50.055 -15.4375 49.375 C-17.0875 49.375 -18.7375 49.375 -20.4375 49.375 C-20.9325 47.89 -20.9325 47.89 -21.4375 46.375 C-24.0775 46.375 -26.7175 46.375 -29.4375 46.375 C-29.4375 45.715 -29.4375 45.055 -29.4375 44.375 C-28.7775 44.375 -28.1175 44.375 -27.4375 44.375 C-27.4375 43.385 -27.4375 42.395 -27.4375 41.375 C-29.4175 41.375 -31.3975 41.375 -33.4375 41.375 C-32.4475 40.715 -31.4575 40.055 -30.4375 39.375 C-29.7775 39.705 -29.1175 40.035 -28.4375 40.375 C-29.0975 39.715 -29.7575 39.055 -30.4375 38.375 C-30.4375 37.385 -30.4375 36.395 -30.4375 35.375 C-32.0875 35.375 -33.7375 35.375 -35.4375 35.375 C-35.4375 35.045 -35.4375 34.715 -35.4375 34.375 C-33.7875 34.375 -32.1375 34.375 -30.4375 34.375 C-30.4375 33.715 -30.4375 33.055 -30.4375 32.375 C-31.4275 32.045 -32.4175 31.715 -33.4375 31.375 C-32.4475 31.375 -31.4575 31.375 -30.4375 31.375 C-30.1075 30.055 -29.7775 28.735 -29.4375 27.375 C-30.7575 26.715 -32.0775 26.055 -33.4375 25.375 C-32.1175 25.375 -30.7975 25.375 -29.4375 25.375 C-29.41171875 24.28960937 -29.3859375 23.20421875 -29.359375 22.0859375 C-29.30306262 20.64058651 -29.245716 19.19527556 -29.1875 17.75 C-29.17332031 17.03714844 -29.15914062 16.32429688 -29.14453125 15.58984375 C-28.90914138 10.45834449 -27.74895348 7.48218168 -24.4375 3.375 C-17.74969141 -2.66033946 -8.31003284 -3.82198075 0 0 Z " fill="#D17B25" transform="translate(58.4375,43.625)"/>
<path d="M0 0 C3.465 2.475 3.465 2.475 7 5 C6.67 5.99 6.34 6.98 6 8 C6.72574219 8.06960937 7.45148438 8.13921875 8.19921875 8.2109375 C11.81684806 9.23013014 13.25773808 10.89276674 15.8125 13.625 C21.19639012 19.23355319 26.74174632 24.38212559 33 29 C32.65757342 34.4788252 29.34879567 37.94060622 26 42 C25.21625 43.010625 24.4325 44.02125 23.625 45.0625 C21 47 21 47 17.3125 47.0625 C6.83464012 44.88886248 0.21355345 40.17122135 -7.1875 32.5625 C-8.05697266 31.71623047 -8.92644531 30.86996094 -9.82226562 29.99804688 C-10.63759766 29.17498047 -11.45292969 28.35191406 -12.29296875 27.50390625 C-13.0305542 26.75955322 -13.76813965 26.0152002 -14.52807617 25.24829102 C-16 23 -16 23 -15.84033203 20.33691406 C-14.77856644 17.38420627 -13.2945717 16.13605207 -11 14 C-9.20411418 11.82174162 -7.51218974 9.56627362 -5.8125 7.3125 C-1.08952703 1.08952703 -1.08952703 1.08952703 0 0 Z " fill="#046160" transform="translate(89,68)"/>
<path d="M0 0 C3.72813965 2.16372197 6.04367195 4.91161144 8.5625 8.375 C7.9025 8.705 7.2425 9.035 6.5625 9.375 C6.88476562 9.94347656 7.20703125 10.51195312 7.5390625 11.09765625 C9.20855957 14.81260585 9.13907688 18.38167124 8.5625 22.375 C6.62860695 25.81303208 5.6023736 27.06776462 1.8125 28.1875 C1.07 28.249375 0.3275 28.31125 -0.4375 28.375 C-0.4375 27.715 -0.4375 27.055 -0.4375 26.375 C0.8825 26.375 2.2025 26.375 3.5625 26.375 C3.5625 25.715 3.5625 25.055 3.5625 24.375 C3.2325 24.705 2.9025 25.035 2.5625 25.375 C0.89632885 25.41563832 -0.77138095 25.417721 -2.4375 25.375 C-2.4375 23.395 -2.4375 21.415 -2.4375 19.375 C-1.7775 19.375 -1.1175 19.375 -0.4375 19.375 C-1.4275 16.405 -2.4175 13.435 -3.4375 10.375 C-4.4275 10.87 -4.4275 10.87 -5.4375 11.375 C-4.7775 11.375 -4.1175 11.375 -3.4375 11.375 C-3.1075 13.355 -2.7775 15.335 -2.4375 17.375 C-3.4275 17.375 -4.4175 17.375 -5.4375 17.375 C-4.7775 18.365 -4.1175 19.355 -3.4375 20.375 C-3.4375 21.365 -3.4375 22.355 -3.4375 23.375 C-4.7575 23.045 -6.0775 22.715 -7.4375 22.375 C-7.4375 21.715 -7.4375 21.055 -7.4375 20.375 C-8.0975 20.375 -8.7575 20.375 -9.4375 20.375 C-9.4375 19.715 -9.4375 19.055 -9.4375 18.375 C-10.365625 18.395625 -11.29375 18.41625 -12.25 18.4375 C-15.4375 18.375 -15.4375 18.375 -18.4375 17.375 C-18.4375 18.035 -18.4375 18.695 -18.4375 19.375 C-17.4475 19.705 -16.4575 20.035 -15.4375 20.375 C-16.4275 20.705 -17.4175 21.035 -18.4375 21.375 C-19.0975 21.045 -19.7575 20.715 -20.4375 20.375 C-20.4375 21.365 -20.4375 22.355 -20.4375 23.375 C-21.7575 23.705 -23.0775 24.035 -24.4375 24.375 C-24.1075 23.385 -23.7775 22.395 -23.4375 21.375 C-23.7675 21.045 -24.0975 20.715 -24.4375 20.375 C-24.67243431 18.56803615 -24.85121774 16.7535882 -25 14.9375 C-25.08378906 13.94878906 -25.16757812 12.96007812 -25.25390625 11.94140625 C-25.43567032 9.40057653 -25.4375 6.92345367 -25.4375 4.375 C-18.3562474 -2.23416909 -9.11939401 -4.19422511 0 0 Z " fill="#B5772D" transform="translate(58.4375,43.625)"/>
<path d="M0 0 C0.66 0 1.32 0 2 0 C3.56338162 6.30506654 4.80047922 12.5318638 1.68945312 18.52441406 C-2.00868921 24.04621078 -6.26915568 29.32304518 -11 34 C-11.33 34 -11.66 34 -12 34 C-12.04898438 33.21753906 -12.09796875 32.43507812 -12.1484375 31.62890625 C-12.22320312 30.61699219 -12.29796875 29.60507812 -12.375 28.5625 C-12.44460937 27.55316406 -12.51421875 26.54382813 -12.5859375 25.50390625 C-12.72257812 24.67761719 -12.85921875 23.85132812 -13 23 C-13.66 22.67 -14.32 22.34 -15 22 C-12.73342787 17.18693136 -9.59974047 13.05332733 -6.5 8.75 C-5.90574219 7.90953125 -5.31148437 7.0690625 -4.69921875 6.203125 C-4.12816406 5.4090625 -3.55710937 4.615 -2.96875 3.796875 C-2.18661133 2.70391113 -2.18661133 2.70391113 -1.38867188 1.58886719 C-0.7012793 0.80237793 -0.7012793 0.80237793 0 0 Z " fill="#D57C24" transform="translate(100,28)"/>
<path d="M0 0 C3.0625 1 3.0625 1 5 2 C4.42647107 5.87132028 2.51295648 8.08172796 0 11 C0.66 11 1.32 11 2 11 C2.33 12.98 2.66 14.96 3 17 C2.01 17 1.02 17 0 17 C0.66 17.99 1.32 18.98 2 20 C2 20.99 2 21.98 2 23 C0.68 22.67 -0.64 22.34 -2 22 C-2 21.34 -2 20.68 -2 20 C-2.66 20 -3.32 20 -4 20 C-4 19.34 -4 18.68 -4 18 C-4.886875 18.04125 -5.77375 18.0825 -6.6875 18.125 C-9.97277013 18.00102754 -12.05449295 17.38612096 -15 16 C-14.34 14.68 -13.68 13.36 -13 12 C-12.01 12 -11.02 12 -10 12 C-10.495 10.9171875 -10.495 10.9171875 -11 9.8125 C-12.02579569 6.92744961 -12.40911584 5.02745724 -12 2 C-7.95398061 -0.69734626 -4.74576236 -0.43218852 0 0 Z " fill="#C67A28" transform="translate(53,44)"/>
<path d="M0 0 C0.66 0 1.32 0 2 0 C2.5878125 0.6496875 2.5878125 0.6496875 3.1875 1.3125 C7.58463845 5.40638752 13.20037101 6.40820112 19 7 C16.86535088 9.45484649 15.29279709 10.68134222 12 11 C11.34 10.34 10.68 9.68 10 9 C9.4465236 11.07553648 9 12.84365964 9 15 C9 16.66666667 9 18.33333333 9 20 C7.35 20 5.7 20 4 20 C3.67 19.01 3.34 18.02 3 17 C0.36 17 -2.28 17 -5 17 C-5 16.34 -5 15.68 -5 15 C-4.34 15 -3.68 15 -3 15 C-2.67 12.69 -2.34 10.38 -2 8 C-0.68 8 0.64 8 2 8 C2.33 9.32 2.66 10.64 3 12 C3.2165625 11.0409375 3.2165625 11.0409375 3.4375 10.0625 C4 8 4 8 5 7 C2.69 6.67 0.38 6.34 -2 6 C-1.125 1.125 -1.125 1.125 0 0 Z " fill="#79703E" transform="translate(34,73)"/>
<path d="M0 0 C9.6869175 1.50236915 16.13875605 5.12395344 22 13 C19.36 13.99 16.72 14.98 14 16 C11.65861457 13.71643754 9.32833018 11.42186626 7 9.125 C5.99839844 8.14853516 5.99839844 8.14853516 4.9765625 7.15234375 C4.34492187 6.52714844 3.71328125 5.90195313 3.0625 5.2578125 C2.47597656 4.6817627 1.88945313 4.10571289 1.28515625 3.51220703 C0 2 0 2 0 0 Z " fill="#0E625D" transform="translate(77,110)"/>
<path d="M0 0 C3.29596965 0.58667 4.98498736 1.59438595 7.3828125 3.90625 C7.99253906 4.48503906 8.60226563 5.06382813 9.23046875 5.66015625 C9.85566406 6.26730469 10.48085937 6.87445313 11.125 7.5 C12.37577474 8.69982669 13.62829864 9.8978334 14.8828125 11.09375 C15.43340332 11.62677734 15.98399414 12.15980469 16.55126953 12.70898438 C17.98895966 14.10330647 17.98895966 14.10330647 20 15 C20 15.66 20 16.32 20 17 C20.598125 17.2475 21.19625 17.495 21.8125 17.75 C24.28647521 19.16370012 25.43370255 20.65055383 27 23 C16.55620162 20.24399765 10.26711929 14.5356624 2.8828125 6.85546875 C1.1286164 4.9354414 1.1286164 4.9354414 -1 4 C-0.67 2.68 -0.34 1.36 0 0 Z " fill="#11625C" transform="translate(94,61)"/>
<path d="M0 0 C1.32 0.33 2.64 0.66 4 1 C3.67 5.29 3.34 9.58 3 14 C3.66 14.33 4.32 14.66 5 15 C4.01 15.33 3.02 15.66 2 16 C2 16.99 2 17.98 2 19 C0.72245446 21.0360882 -0.60699818 23.04109119 -2 25 C-3.32 24.34 -4.64 23.68 -6 23 C-5.4946875 22.43152344 -4.989375 21.86304687 -4.46875 21.27734375 C-3.8190625 20.50519531 -3.169375 19.73304687 -2.5 18.9375 C-1.8503125 18.18339844 -1.200625 17.42929688 -0.53125 16.65234375 C1.4185488 13.27501369 1.26288969 10.83537283 1 7 C0.22914062 8.010625 -0.54171875 9.02125 -1.3359375 10.0625 C-2.34863184 11.37525193 -3.3616705 12.6877383 -4.375 14 C-4.88289063 14.66773438 -5.39078125 15.33546875 -5.9140625 16.0234375 C-6.40390625 16.65507813 -6.89375 17.28671875 -7.3984375 17.9375 C-7.84880371 18.52402344 -8.29916992 19.11054687 -8.76318359 19.71484375 C-9.17133301 20.13894531 -9.57948242 20.56304687 -10 21 C-10.66 21 -11.32 21 -12 21 C-11.5853677 15.6097801 -8.48058685 11.93870373 -5.4375 7.6875 C-4.91736328 6.94693359 -4.39722656 6.20636719 -3.86132812 5.44335938 C-2.58156882 3.62351816 -1.29437782 1.80945816 0 0 Z " fill="#967539" transform="translate(84,49)"/>
<path d="M0 0 C6.625 0.75 6.625 0.75 10 3 C10 3.66 10 4.32 10 5 C10.66 5.33 11.32 5.66 12 6 C12 7.32 12 8.64 12 10 C8.51690122 11.74154939 4.72761301 10.71419812 1 10 C-3.03174296 8.38730281 -4.57942137 7.63086795 -7 4 C-6.67 3.34 -6.34 2.68 -6 2 C-2.9375 1.375 -2.9375 1.375 0 1 C0 0.67 0 0.34 0 0 Z " fill="#0E625D" transform="translate(43,66)"/>
<path d="M0 0 C3.68069887 1.53643852 5.98775204 3.78150945 8.75 6.625 C9.54921875 7.44226563 10.3484375 8.25953125 11.171875 9.1015625 C12.07679687 10.04128906 12.07679687 10.04128906 13 11 C11 12 11 12 9.0546875 11.44140625 C7.97574219 11.00634766 7.97574219 11.00634766 6.875 10.5625 C6.15054688 10.27503906 5.42609375 9.98757812 4.6796875 9.69140625 C4.12539062 9.46324219 3.57109375 9.23507813 3 9 C3 9.66 3 10.32 3 11 C-0.82946843 9.54744301 -2.12050295 7.57104439 -4 4 C-2.68 2.68 -1.36 1.36 0 0 Z " fill="#12625C" transform="translate(69,94)"/>
<path d="M0 0 C3.12290635 0.48578543 5.99580359 0.9986012 9 2 C8.42424336 5.35250701 7.40693737 6.93818629 4.9375 9.25 C4.38964844 9.77078125 3.84179688 10.2915625 3.27734375 10.828125 C2.85582031 11.21484375 2.43429688 11.6015625 2 12 C1.01 11.67 0.02 11.34 -1 11 C-2.23076923 4.6 -2.23076923 4.6 -1.0625 1.5625 C-0.711875 1.046875 -0.36125 0.53125 0 0 Z " fill="#0E625D" transform="translate(49,44)"/>
<path d="M0 0 C3.875 1.875 3.875 1.875 5 3 C5.375 5.3125 5.375 5.3125 5 8 C2.6875 10.375 2.6875 10.375 0 12 C-0.99 11.67 -1.98 11.34 -3 11 C-3.32613618 6.32538149 -2.70582788 3.83325617 0 0 Z " fill="#0E625D" transform="translate(59,48)"/>
<path d="M0 0 C0.33 0 0.66 0 1 0 C0.67 4.29 0.34 8.58 0 13 C0.66 13.33 1.32 13.66 2 14 C1.01 14.33 0.02 14.66 -1 15 C-1 15.99 -1 16.98 -1 18 C-2.27754554 20.0360882 -3.60699818 22.04109119 -5 24 C-6.32 23.34 -7.64 22.68 -9 22 C-8.4946875 21.47792969 -7.989375 20.95585938 -7.46875 20.41796875 C-3.55866318 15.98808864 -1.52015705 13.10278375 -1.6875 7.0625 C-1.81705078 5.68771484 -1.81705078 5.68771484 -1.94921875 4.28515625 C-1.96597656 3.53105469 -1.98273438 2.77695312 -2 2 C-1.34 1.34 -0.68 0.68 0 0 Z " fill="#616F4B" transform="translate(87,50)"/>
<path d="M0 0 C0.66 0.33 1.32 0.66 2 1 C2.35813217 5.56618517 2.60240582 8.92905632 0.3125 13 C-2.21006769 15.18168017 -3.7129718 15.72608098 -7 16 C-7 15.34 -7 14.68 -7 14 C-5.68 14 -4.36 14 -3 14 C-3 13.34 -3 12.68 -3 12 C-2.34 12 -1.68 12 -1 12 C-1 11.34 -1 10.68 -1 10 C-1.66 10 -2.32 10 -3 10 C-3.75 7.8125 -3.75 7.8125 -4 5 C-2.0625 2.1875 -2.0625 2.1875 0 0 Z " fill="#0F625D" transform="translate(65,56)"/>
<path d="M0 0 C0.1875 2.375 0.1875 2.375 0 5 C-0.99 5.66 -1.98 6.32 -3 7 C-3.33 7.99 -3.66 8.98 -4 10 C-4.99 9.67 -5.98 9.34 -7 9 C-7 7.35 -7 5.7 -7 4 C-7.66 4 -8.32 4 -9 4 C-8.67 3.01 -8.34 2.02 -8 1 C-5.07175348 0.02391783 -3.04386724 -0.08226668 0 0 Z " fill="#B2772E" transform="translate(53,85)"/>
<path d="M0 0 C0.66 0 1.32 0 2 0 C2.0825 0.61875 2.165 1.2375 2.25 1.875 C2.81258459 4.18437567 2.81258459 4.18437567 5.0625 5.25 C5.701875 5.4975 6.34125 5.745 7 6 C3.375 10.875 3.375 10.875 0 12 C0 8.04 0 4.08 0 0 Z " fill="#4D6A4D" transform="translate(64,82)"/>
<path d="M0 0 C1.8125 0.1875 1.8125 0.1875 4 1 C6.14197494 3.90696599 7 5.35521088 7 9 C5.68 8.67 4.36 8.34 3 8 C3 7.34 3 6.68 3 6 C2.34 6 1.68 6 1 6 C1 5.34 1 4.68 1 4 C-0.65 4 -2.3 4 -4 4 C-3.67 3.01 -3.34 2.02 -3 1 C-2.01 1.33 -1.02 1.66 0 2 C0 1.34 0 0.68 0 0 Z " fill="#646D44" transform="translate(48,58)"/>
<path d="M0 0 C0.32613618 4.67461851 -0.29417212 7.16674383 -3 11 C-3.99 10.67 -4.98 10.34 -6 10 C-5.67112602 6.38238619 -5.37334709 4.44334967 -3 1.625 C-1 0 -1 0 0 0 Z " fill="#09615E" transform="translate(39,47)"/>
<path d="M0 0 C1.32 0.33 2.64 0.66 4 1 C2.68 3.64 1.36 6.28 0 9 C-0.66 9 -1.32 9 -2 9 C-2.33 6.69 -2.66 4.38 -3 2 C-2.01 1.34 -1.02 0.68 0 0 Z " fill="#0E625D" transform="translate(44,44)"/>
<path d="M0 0 C2.71484375 -0.3984375 2.71484375 -0.3984375 5.9375 -0.375 C6.99839844 -0.38273437 8.05929688 -0.39046875 9.15234375 -0.3984375 C12.25035934 0.0350297 13.14422111 0.55580342 15 3 C12.36 2.67 9.72 2.34 7 2 C6.67 2.66 6.34 3.32 6 4 C6 3.34 6 2.68 6 2 C3.36 2.33 0.72 2.66 -2 3 C-1.34 2.01 -0.68 1.02 0 0 Z " fill="#D27B24" transform="translate(42,42)"/>
<path d="M0 0 C0.96070434 2.88211302 1.10581883 4.69850044 1.0625 7.6875 C1.05347656 8.49574219 1.04445313 9.30398437 1.03515625 10.13671875 C1.02355469 10.75160156 1.01195312 11.36648437 1 12 C-0.32 12 -1.64 12 -3 12 C-4.21386936 8.35839192 -3.6674695 7.66834531 -2.0625 4.3125 C-1.49208984 3.10013672 -1.49208984 3.10013672 -0.91015625 1.86328125 C-0.60980469 1.24839844 -0.30945312 0.63351563 0 0 Z " fill="#766F3F" transform="translate(47,45)"/>
<path d="M0 0 C0.66 0 1.32 0 2 0 C2.33 2.64 2.66 5.28 3 8 C1.35 8 -0.3 8 -2 8 C-2 6.02 -2 4.04 -2 2 C-1.34 2 -0.68 2 0 2 C0 1.34 0 0.68 0 0 Z " fill="#686E43" transform="translate(58,61)"/>
<path d="M0 0 C0.33 0 0.66 0 1 0 C0.67 4.29 0.34 8.58 0 13 C0.66 13.33 1.32 13.66 2 14 C0.02 14.99 -1.96 15.98 -4 17 C-3.67 16.45601562 -3.34 15.91203125 -3 15.3515625 C-1.78708213 12.49931031 -1.86703002 10.45824141 -2 7.375 C-2.125 4.4609375 -2.125 4.4609375 -2 2 C-1.34 1.34 -0.68 0.68 0 0 Z " fill="#2F6859" transform="translate(87,50)"/>
<path d="M0 0 C1.32 0 2.64 0 4 0 C4 2.31 4 4.62 4 7 C2.68 6.67 1.36 6.34 0 6 C0 4.02 0 2.04 0 0 Z " fill="#396851" transform="translate(32,81)"/>
<path d="M0 0 C2.625 0.375 2.625 0.375 5 1 C5 1.66 5 2.32 5 3 C5.66 3 6.32 3 7 3 C7 3.99 7 4.98 7 6 C3.9168649 4.80100302 0.93720508 3.52299523 -2 2 C-1.34 1.34 -0.68 0.68 0 0 Z " fill="#B0772F" transform="translate(46,63)"/>
<path d="M0 0 C0 3 0 3 -1.96875 5.26171875 C-2.8040625 6.06222656 -3.639375 6.86273438 -4.5 7.6875 C-5.3353125 8.49574219 -6.170625 9.30398437 -7.03125 10.13671875 C-7.6809375 10.75160156 -8.330625 11.36648437 -9 12 C-9.66 11.67 -10.32 11.34 -11 11 C-7.6189962 6.86378916 -4.33409466 3.18683431 0 0 Z " fill="#9D7434" transform="translate(30,20)"/>
<path d="M0 0 C0 0.99 0 1.98 0 3 C-5.34883721 8 -5.34883721 8 -8 8 C-6.88333826 4.65001479 -6.25305075 4.20659778 -3.4375 2.3125 C-2.79683594 1.87550781 -2.15617187 1.43851562 -1.49609375 0.98828125 C-1.00238281 0.66214844 -0.50867188 0.33601563 0 0 Z " fill="#A6C6C6" transform="translate(115,120)"/>
<path d="M0 0 C0.99 0 1.98 0 3 0 C3 0.66 3 1.32 3 2 C3.99 2.33 4.98 2.66 6 3 C3.525 4.485 3.525 4.485 1 6 C1 5.01 1 4.02 1 3 C0.34 3 -0.32 3 -1 3 C-0.67 2.01 -0.34 1.02 0 0 Z " fill="#4B6A4B" transform="translate(45,86)"/>
<path d="M0 0 C0.66 0 1.32 0 2 0 C2 0.66 2 1.32 2 2 C2.99 2.33 3.98 2.66 5 3 C4.01 3.33 3.02 3.66 2 4 C1.34 3.67 0.68 3.34 0 3 C0 3.99 0 4.98 0 6 C-1.32 6.33 -2.64 6.66 -4 7 C-3.67 6.01 -3.34 5.02 -3 4 C-2.34 4 -1.68 4 -1 4 C-0.67 2.68 -0.34 1.36 0 0 Z " fill="#596C47" transform="translate(38,61)"/>
<path d="M0 0 C0.66 0 1.32 0 2 0 C2 2.31 2 4.62 2 7 C1.34 7 0.68 7 0 7 C0 6.34 0 5.68 0 5 C-1.32 4.67 -2.64 4.34 -4 4 C-3.01 4 -2.02 4 -1 4 C-0.67 2.68 -0.34 1.36 0 0 Z " fill="#87723A" transform="translate(29,71)"/>
<path d="M0 0 C0.66 0.99 1.32 1.98 2 3 C-1.32307692 7.8 -1.32307692 7.8 -4.75 8.8125 C-5.4925 8.874375 -6.235 8.93625 -7 9 C-7 8.34 -7 7.68 -7 7 C-5.68 7 -4.36 7 -3 7 C-3 6.34 -3 5.68 -3 5 C-2.34 5 -1.68 5 -1 5 C-1.33 4.01 -1.66 3.02 -2 2 C-1.34 2 -0.68 2 0 2 C0 1.34 0 0.68 0 0 Z " fill="#6C6E42" transform="translate(65,63)"/>
<path d="M0 0 C1.65 0 3.3 0 5 0 C5.33 0.99 5.66 1.98 6 3 C4.68 3.33 3.36 3.66 2 4 C2 4.66 2 5.32 2 6 C1.34 6 0.68 6 0 6 C0 4.02 0 2.04 0 0 Z " fill="#907337" transform="translate(34,58)"/>
<path d="M0 0 C1.60031344 3.20062687 0.03173691 5.72271806 -1 9 C-3 6 -3 6 -4 3 C-3 1 -3 1 0 0 Z " fill="#17645C" transform="translate(58,84)"/>
<path d="M0 0 C0.99 0 1.98 0 3 0 C1.84826645 2.46800047 0.95216435 4.04783565 -1 6 C-1.66 5.67 -2.32 5.34 -3 5 C-1.125 1.125 -1.125 1.125 0 0 Z " fill="#1E6459" transform="translate(60,78)"/>
<path d="M0 0 C-0.99 1.485 -0.99 1.485 -2 3 C-1.67 3.66 -1.34 4.32 -1 5 C-1.66 5 -2.32 5 -3 5 C-3.33 5.66 -3.66 6.32 -4 7 C-4 5.02 -4 3.04 -4 1 C-4.66 0.67 -5.32 0.34 -6 0 C-3.50907189 -1.24546405 -2.58919267 -0.7767578 0 0 Z " fill="#D47B24" transform="translate(40,80)"/>
<path d="M0 0 C0.99 0 1.98 0 3 0 C3.33 0.99 3.66 1.98 4 3 C2.02 3.99 2.02 3.99 0 5 C-0.66 4.34 -1.32 3.68 -2 3 C-1.34 2.01 -0.68 1.02 0 0 Z " fill="#17635A" transform="translate(40,56)"/>
<path d="M0 0 C1.98 0 3.96 0 6 0 C3.82575883 2.50037734 2.26954202 3.43628586 -1 4 C-0.67 2.68 -0.34 1.36 0 0 Z " fill="#2B6654" transform="translate(47,80)"/>
<path d="M0 0 C0.99 0 1.98 0 3 0 C3.33 2.64 3.66 5.28 4 8 C3.01 8 2.02 8 1 8 C0.67 5.36 0.34 2.72 0 0 Z " fill="#A47632" transform="translate(59,59)"/>
<path d="M0 0 C0.33 1.98 0.66 3.96 1 6 C-0.9375 5.1875 -0.9375 5.1875 -3 4 C-3.33 3.01 -3.66 2.02 -4 1 C-2 0 -2 0 0 0 Z " fill="#236557" transform="translate(55,55)"/>
<path d="M0 0 C0.66 0 1.32 0 2 0 C2.66 2.31 3.32 4.62 4 7 C3.34 7 2.68 7 2 7 C1.34 4.69 0.68 2.38 0 0 Z " fill="#A8C6C6" transform="translate(133,50)"/>
<path d="M0 0 C0.66 0 1.32 0 2 0 C2 1.32 2 2.64 2 4 C1.01 4 0.02 4 -1 4 C-0.67 2.68 -0.34 1.36 0 0 Z " fill="#87B2B2" transform="translate(131,97)"/>
<path d="M0 0 C0.99 0.33 1.98 0.66 3 1 C2.67 1.99 2.34 2.98 2 4 C1.34 3.67 0.68 3.34 0 3 C0 2.01 0 1.02 0 0 Z " fill="#75A5A5" transform="translate(115,19)"/>
<path d="M0 0 C0.66 0 1.32 0 2 0 C1.67 0.99 1.34 1.98 1 3 C0.34 2.67 -0.32 2.34 -1 2 C-0.67 1.34 -0.34 0.68 0 0 Z " fill="#A4C3C3" transform="translate(128,104)"/>
<path d="M0 0 C0.66 0 1.32 0 2 0 C2 0.99 2 1.98 2 3 C1.34 3 0.68 3 0 3 C0 2.01 0 1.02 0 0 Z " fill="#679C9C" transform="translate(136,62)"/>
<path d="M0 0 C0.66 0.99 1.32 1.98 2 3 C1.01 3 0.02 3 -1 3 C-0.67 2.01 -0.34 1.02 0 0 Z " fill="#6DA1A1" transform="translate(119,22)"/>
<path d="M0 0 C0.99 0.33 1.98 0.66 3 1 C2.34 1.66 1.68 2.32 1 3 C0.67 2.01 0.34 1.02 0 0 Z " fill="#71A3A3" transform="translate(109,15)"/>
<path d="M0 0 C0.99 0.33 1.98 0.66 3 1 C2.01 1.33 1.02 1.66 0 2 C0 1.34 0 0.68 0 0 Z " fill="#82AEAE" transform="translate(103,11)"/>
<path d="M0 0 C1.98 0.99 1.98 0.99 4 2 C2.68 1.67 1.36 1.34 0 1 C0 0.67 0 0.34 0 0 Z " fill="#699C9C" transform="translate(94,7)"/>
<path d="M0 0 C1 4 1 4 1 4 Z " fill="#569494" transform="translate(135,85)"/>
<path d="" fill="#86B0B0" transform="translate(0,0)"/>
<path d="" fill="#75A6A6" transform="translate(0,0)"/>
<path d="" fill="#388181" transform="translate(0,0)"/>
<path d="M0 0 C0.66 0.66 1.32 1.32 2 2 C1.34 2 0.68 2 0 2 C0 1.34 0 0.68 0 0 Z " fill="#609999" transform="translate(127,35)"/>
<path d="M0 0 C0.66 0.66 1.32 1.32 2 2 C1.34 2 0.68 2 0 2 C0 1.34 0 0.68 0 0 Z " fill="#408484" transform="translate(123,29)"/>
<path d="M0 0 C2 1 2 1 2 1 Z " fill="#1C6D6D" transform="translate(90,134)"/>
<path d="M0 0 C2 1 2 1 2 1 Z " fill="#367E7E" transform="translate(102,129)"/>
<path d="M0 0 C2 1 2 1 2 1 Z " fill="#327D7D" transform="translate(29,124)"/>
<path d="" fill="#408585" transform="translate(0,0)"/>
<path d="" fill="#267575" transform="translate(0,0)"/>
<path d="" fill="#579292" transform="translate(0,0)"/>
<path d="M0 0 C2 1 2 1 2 1 Z " fill="#1A6E6E" transform="translate(40,10)"/>
<path d="" fill="#91B6B6" transform="translate(0,0)"/>
<path d="" fill="#146A6A" transform="translate(0,0)"/>
<path d="" fill="#0E6767" transform="translate(0,0)"/>
<path d="" fill="#388181" transform="translate(0,0)"/>
<path d="" fill="#227474" transform="translate(0,0)"/>
<path d="" fill="#1D7171" transform="translate(0,0)"/>
<path d="" fill="#4B8A8A" transform="translate(0,0)"/>
<path d="" fill="#126A6A" transform="translate(0,0)"/>
<path d="" fill="#579090" transform="translate(0,0)"/>
<path d="" fill="#83ADAD" transform="translate(0,0)"/>
<path d="" fill="#357E7E" transform="translate(0,0)"/>
<path d="" fill="#528C8C" transform="translate(0,0)"/>
<path d="" fill="#488A8A" transform="translate(0,0)"/>
<path d="" fill="#77A6A6" transform="translate(0,0)"/>
<path d="" fill="#257676" transform="translate(0,0)"/>
<path d="" fill="#649898" transform="translate(0,0)"/>
<path d="" fill="#8FB3B3" transform="translate(0,0)"/>
<path d="" fill="#267373" transform="translate(0,0)"/>
<path d="" fill="#408484" transform="translate(0,0)"/>
<path d="" fill="#1A6F6F" transform="translate(0,0)"/>
<path d="" fill="#4E8D8D" transform="translate(0,0)"/>
<path d="" fill="#5C9797" transform="translate(0,0)"/>
<path d="" fill="#186B6B" transform="translate(0,0)"/>
</svg>
